# xmcd
#
# Track frame offsets:
#	150
#	16766
#	33329
#	50705
#	67923
#	82799
#	101605
#	117747
#	134077
#	150917
#	168394
#
# Disc length: 2467 seconds
#
# Revision: 1
# Processed by: cddbd v1.5.2PL0 Copyright (c) Steve Scherf et al.
# Submitted via: audiograbber 1.83.01
#
DISCID=8609a10b
DTITLE=Paula Koivuniemi - Nainen
DYEAR=2009
DGENRE=Pop
TTITLE0=Nainen
TTITLE1=Viimeinen Rakkaus
TTITLE2=Lohduttaja
TTITLE3=Tahroja Paperilla
TTITLE4=Rock Halleluja
TTITLE5=Jos Luoja Suo
TTITLE6=Sataa
TTITLE7=Elän
TTITLE8=Harharetki
TTITLE9=Tähti
TTITLE10=Ystävyys
EXTD=TR.
EXTT0=
EXTT1=
EXTT2=
EXTT3=
EXTT4=
EXTT5=
EXTT6=
EXTT7=
EXTT8=
EXTT9=
EXTT10=
PLAYORDER=
